<svg fill="#000000" height="800px" width="800px" version="1.1" id="Layer_1" xmlns="http://www.w3.org/2000/svg" xmlns:xlink="http://www.w3.org/1999/xlink" viewBox="0 0 512 512" xml:space="preserve">
  <g>
    <g>
      <path d="M371.077,415.97c-0.311-0.377-31.309-38.123-47.589-82.328c-11.623-31.547-12.973-59.415-12.954-72.874h18.24
        c3.198,0,6.155-1.991,7.759-4.76c1.608-2.769,1.617-6.322,0.031-9.1l-20.508-35.963c-0.749-1.315-1.809-2.416-3.049-3.19
        l15.5-62.022c0.67-2.681,0.066-5.24-1.634-7.413c-1.7-2.182-4.307-3.17-7.071-3.17h-22.723
        c8.543-11.216,13.75-22.403,13.75-36.182c0-10.497-6.69-18.992-13.775-27.842c-5.065-6.326-10.3-12.938-13.949-20.953
        c-2.607-5.724-4.127-13.181-5.595-20.357C274.654,15.851,271.416,0,256.993,0c-16.477,0-19.146,16.094-21.288,29.036
        c-1.117,6.729-2.383,14.366-5.078,21.682c-2.594,7.045-8.53,14.727-13.77,21.509c-7.352,9.516-13.7,18.018-13.7,26.745
        c0,13.779,5.208,24.964,13.751,36.18h-22.724c-2.765,0-5.371,0.979-7.071,3.161c-1.7,2.173-2.304,4.867-1.634,7.549l15.502,61.932
        c-1.24,0.773-2.301,1.803-3.05,3.115l-20.508,35.873c-1.586,2.778-1.577,6.467,0.031,9.236c1.603,2.769,4.561,4.751,7.759,4.751
        h17.814c-0.503,13.459-2.784,45.763-12.775,72.874c-13.722,37.249-48.237,82.335-48.584,82.782
        c-1.174,1.56-2.311,3.314-2.311,5.268v80.753c0,4.96,5.011,9.555,9.966,9.555h215.342c4.955,0,7.979-4.596,7.979-9.555v-80.753
        C372.643,419.606,372.409,417.573,371.077,415.97z M231.057,83.205c6.028-7.807,12.863-16.648,16.412-26.287
        c3.281-8.92,4.753-17.814,5.936-24.964c0.705-4.241,1.709-10.296,2.883-12.924c1.38,3.295,2.703,9.761,3.641,14.344
        c1.595,7.781,3.395,16.587,6.843,24.158c4.578,10.059,10.791,17.822,16.276,24.666c5.279,6.598,9.836,12.285,9.836,16.482
        c0,19.794-16.101,35.89-35.89,35.89c-19.79,0-35.89-16.096-35.89-35.882C221.182,95.98,227.123,88.287,231.057,83.205z
         M308.31,153.097l-13.459,53.835h-75.715l-13.459-53.835H308.31z M200.674,242.823l10.256-17.945h1.201h89.726h1.2l10.256,17.945
        h-11.457h-89.726H200.674z M354.698,494.055H157.302v-69.393c8.973-10.243,36.374-49.742,49.294-84.817
        c11.049-29.993,13.924-63.375,14.406-79.077h71.553c-0.053,13.459,1.234,44.852,13.843,79.077
        c15.067,40.894,41.57,75.406,48.3,85.01V494.055z"/>
    </g>
  </g>
</svg>
